<svg xmlns="http://www.w3.org/2000/svg" viewBox="0 0 48 48">
  <rect width="48" height="48" rx="13" fill="#E5C243"/>
  <path d="M12.5 25.5v-3.25a4 4 0 0 1 4-4h15a4 4 0 0 1 4 4v3.25" fill="none" stroke="#315F4F" stroke-linecap="round" stroke-width="3"/>
  <path d="M9.5 24.75a3 3 0 0 1 3-3h.5a3 3 0 0 1 3 3V28h16v-3.25a3 3 0 0 1 3-3h.5a3 3 0 0 1 3 3V34H9.5v-9.25Z" fill="#315F4F"/>
  <path d="M14 34v3M34 34v3" fill="none" stroke="#315F4F" stroke-linecap="round" stroke-width="3"/>
  <path d="m35.25 8 .95 2.8 2.8.95-2.8.95-.95 2.8-.95-2.8-2.8-.95 2.8-.95.95-2.8Z" fill="#fff"/>
</svg>
